<svg width="65" height="36" viewBox="0 0 65 36" fill="none" xmlns="http://www.w3.org/2000/svg">
<g clip-path="url(#clip0_1539_12472)">
<path fill-rule="evenodd" clip-rule="evenodd" d="M12.7254 19.793L17.1336 22.6924V28.0697L12.7051 36.001L12.7254 19.793Z" fill="#62B22F"/>
<path fill-rule="evenodd" clip-rule="evenodd" d="M9.07043 17.502L13.4685 20.0509L0.410156 27.9822L4.67235 20.2249L9.07043 17.502Z" fill="#974995"/>
<path fill-rule="evenodd" clip-rule="evenodd" d="M29.5811 10.1741L21.1774 10.1322L17.1298 7.69886L12.7305 0L29.5811 10.1741Z" fill="#EE7024"/>
<path fill-rule="evenodd" clip-rule="evenodd" d="M12.7317 0L17.1311 7.69886L17.14 18.3073L12.7051 16.9522L12.7317 0Z" fill="#FBB61B"/>
<path fill-rule="evenodd" clip-rule="evenodd" d="M0.375 7.74609L4.68672 15.5847L4.67275 20.2253L0.410561 27.9826L0.375 7.74609Z" fill="#5A58A3"/>
<path fill-rule="evenodd" clip-rule="evenodd" d="M0.375 7.74609L29.5156 25.5759L21.1652 25.6343L4.68672 15.5847L0.375 7.74609Z" fill="#2188CB"/>
<path fill-rule="evenodd" clip-rule="evenodd" d="M21.1784 10.1328L29.5821 10.1747L17.1436 17.8215L17.1309 12.5992L21.1784 10.1328Z" fill="#DA0954"/>
<path fill-rule="evenodd" clip-rule="evenodd" d="M45.4117 11.396C46.4554 10.47 47.8159 9.98188 49.2103 10.0332C50.6492 10.004 52.0983 10.1018 53.5284 9.93164C53.2185 10.8816 52.5898 11.7097 52.1707 12.6139C51.1394 12.633 50.1069 12.5949 49.0769 12.6304C47.7523 12.7384 46.4899 13.8116 46.3604 15.1616C47.5656 13.9601 49.4516 13.8789 51.0137 14.2726C52.0602 14.6282 52.9924 15.4156 53.3721 16.4697C53.7201 17.401 53.7824 18.4149 53.5512 19.3819C53.2045 20.704 52.1415 21.7276 50.8842 22.2115C49.3868 22.7842 47.7307 22.7842 46.2334 22.2115C44.8363 21.6425 43.8483 20.3217 43.5104 18.8726C43.1409 17.5835 43.1904 15.6747 43.5689 14.364C43.9001 13.2256 44.5354 12.199 45.4066 11.3947L45.4117 11.396ZM48.988 16.4303C48.2019 16.2741 47.3167 16.5954 46.909 17.2863C46.1686 18.5398 47.1859 20.4144 48.8458 20.1782C50.6568 19.9242 51.1318 17.0031 48.988 16.4303V16.4303ZM37.2861 13.1854C38.9142 12.7854 40.7761 12.9022 42.1668 13.917C41.707 14.6587 41.2917 15.4257 40.8701 16.189C40.1906 15.963 39.5302 15.6036 38.7948 15.6213C38.0151 15.5972 37.1705 15.902 36.7273 16.5726C36.4928 16.9299 36.365 17.3466 36.3587 17.7739C36.3524 18.2013 36.4679 18.6215 36.6917 18.9856C37.1006 19.6689 37.9046 19.9851 38.6678 20.0562C39.2635 19.9889 39.8693 19.9051 40.4205 19.6524C40.5542 19.5835 40.7064 19.5595 40.8548 19.5838C41.1241 20.3534 41.7134 20.9897 41.9458 21.7682C40.4459 22.5696 38.6577 22.7334 37.0155 22.3347C35.884 22.0019 34.8057 21.3542 34.158 20.3458C33.1331 18.7735 33.1725 16.5497 34.3498 15.0689C35.0597 14.1113 36.1456 13.4877 37.2861 13.1892V13.1854ZM55.1337 13.2261C58.2969 13.2032 61.4605 13.2032 64.6245 13.2261C64.5966 16.2309 64.6144 19.2384 64.6169 22.2432C63.5526 22.2432 62.4871 22.2508 61.4228 22.2432C61.4723 20.2709 61.3733 18.3062 61.4355 16.3351C61.4413 16.1853 61.4047 16.037 61.3301 15.9071C60.3585 15.9287 59.3844 15.9299 58.409 15.9071C58.3481 18.0153 58.3976 20.1286 58.3849 22.2394C57.3016 22.2585 56.2183 22.2483 55.1362 22.2394C55.1413 19.2358 55.154 16.2309 55.1337 13.2261V13.2261Z" fill="#1B1537"/>
<path fill-rule="evenodd" clip-rule="evenodd" d="M17.1336 28.0692L21.1647 25.6346L29.5151 25.5762L12.7051 36.0005L17.1336 28.0692Z" fill="#037F37"/>
</g>
<defs>
<clipPath id="clip0_1539_12472">
<rect width="64.2503" height="36" fill="white" transform="translate(0.375)"/>
</clipPath>
</defs>
</svg>
