<svg width="51" height="36" viewBox="0 0 51 36" fill="none" xmlns="http://www.w3.org/2000/svg">
<path d="M32.8029 0C22.7901 0 14.7441 8.1 14.7441 18C14.7441 27.9816 22.8693 36 32.8005 36C42.7317 36 50.8641 27.9 50.8641 18C50.8641 8.1 42.7341 0 32.8029 0ZM32.8029 24.7092C29.1093 24.7092 26.0733 21.6816 26.0733 18C26.0733 14.3184 29.1093 11.2908 32.8029 11.2908C36.4965 11.2908 39.5337 14.3184 39.5337 18C39.4509 21.6816 36.4965 24.7092 32.8029 24.7092Z" fill="#8B3FFD"/>
<path d="M14.7431 5.23047V31.4121H8.34472L0.136719 5.23047H14.7431Z" fill="#8B3FFD"/>
</svg>
