<svg width="61" height="73" viewBox="0 0 61 73" fill="none" xmlns="http://www.w3.org/2000/svg">
<g clip-path="url(#clip0_1396_12027)">
<path fill-rule="evenodd" clip-rule="evenodd" d="M12.9908 7.47893C17.6791 2.81812 24.0379 0.199707 30.6682 0.199707C37.2986 0.199707 43.6574 2.81812 48.3457 7.47893C53.0341 12.1397 55.668 18.4611 55.668 25.0525C55.668 31.6439 53.0341 37.9653 48.3457 42.6261L30.6682 60.1997L12.9908 42.6261C10.6692 40.3184 8.82756 37.5787 7.57111 34.5634C6.31466 31.5481 5.66797 28.3163 5.66797 25.0525C5.66797 21.7888 6.31466 18.557 7.57111 15.5417C8.82756 12.5264 10.6692 9.78664 12.9908 7.47893Z" fill="#313130"/>
<path d="M41.4594 37.1509C41.2568 35.7036 40.8547 33.6096 39.9792 31.5486C39.1038 29.4872 37.7558 27.4581 36.5163 26.0371C35.2768 24.6157 34.1461 23.8024 33.3225 23.2258C32.8875 22.9214 32.5385 22.6827 32.204 22.4695V22.4647C36.3643 21.5091 39.5304 16.8492 39.5779 11.223V10.1997H28.692V20.7827C26.6289 19.6562 25.18 17.0082 25.18 13.922V10.1997H21.668V40.1997H25.18V20.2659C25.5643 20.6456 25.9719 20.9859 26.4009 21.282C26.9115 21.6442 27.422 22.0064 27.9068 22.3304C28.1736 22.5085 28.4324 22.6751 28.6916 22.8313V40.1997H41.668C41.6648 39.3991 41.6616 38.5982 41.459 37.1513L41.4594 37.1509ZM32.204 11.6343H36.6505C37.0055 18.5245 33.8097 20.5237 32.6307 21.0242C32.4898 21.08 32.3477 21.1306 32.204 21.1732V11.6343ZM38.338 38.7644H32.204V24.7939C35.7948 26.9744 38.338 32.4005 38.338 38.7488V38.7644V38.7644Z" fill="white"/>
</g>
<rect x="25.668" y="62.1997" width="10" height="10" rx="5" fill="#313130"/>
<defs>
<clipPath id="clip0_1396_12027">
<rect width="60" height="60" fill="white" transform="translate(0.667969 0.199707)"/>
</clipPath>
</defs>
</svg>
