<svg width="24" height="24" viewBox="0 0 24 24" xmlns="http://www.w3.org/2000/svg">
<path d="M16.4697 8.46967C16.7626 8.17678 17.2374 8.17678 17.5303 8.46967C17.8232 8.76256 17.8232 9.23744 17.5303 9.53033L16.4697 8.46967ZM12 14L12.5303 14.5303L12 15.0607L11.4697 14.5303L12 14ZM6.46967 9.53033C6.17678 9.23744 6.17678 8.76256 6.46967 8.46967C6.76256 8.17678 7.23744 8.17678 7.53033 8.46967L6.46967 9.53033ZM17.5303 9.53033L12.5303 14.5303L11.4697 13.4697L16.4697 8.46967L17.5303 9.53033ZM11.4697 14.5303L6.46967 9.53033L7.53033 8.46967L12.5303 13.4697L11.4697 14.5303Z"/>
</svg>
