<svg width="24" height="24" viewBox="0 0 24 24" xmlns="http://www.w3.org/2000/svg">
<path d="M8.46967 7.53033C8.17678 7.23744 8.17678 6.76256 8.46967 6.46967C8.76256 6.17678 9.23744 6.17678 9.53033 6.46967L8.46967 7.53033ZM14 12L14.5303 11.4697L15.0607 12L14.5303 12.5303L14 12ZM9.53033 17.5303C9.23744 17.8232 8.76256 17.8232 8.46967 17.5303C8.17678 17.2374 8.17678 16.7626 8.46967 16.4697L9.53033 17.5303ZM9.53033 6.46967L14.5303 11.4697L13.4697 12.5303L8.46967 7.53033L9.53033 6.46967ZM14.5303 12.5303L9.53033 17.5303L8.46967 16.4697L13.4697 11.4697L14.5303 12.5303Z"/>
</svg>
