<svg width="24" height="24" viewBox="0 0 24 24" fill="none" xmlns="http://www.w3.org/2000/svg">
<path fill-rule="evenodd" clip-rule="evenodd" d="M15.9202 12.7988C15.9725 12.5407 16 12.2736 16 12C16 9.79086 14.2091 8 12 8C11.7264 8 11.4593 8.02746 11.2012 8.07977L12.7295 9.60812C13.5236 9.85 14.15 10.4764 14.3919 11.2705L15.9202 12.7988ZM9.76246 10.8837C9.5945 11.2197 9.5 11.5988 9.5 12C9.5 13.3807 10.6193 14.5 12 14.5C12.4012 14.5 12.7803 14.4055 13.1163 14.2375L14.212 15.3332C13.5784 15.7545 12.8179 16 12 16C9.79086 16 8 14.2091 8 12C8 11.1821 8.24547 10.4216 8.66676 9.78799L9.76246 10.8837Z" fill="#313130"/>
<path fill-rule="evenodd" clip-rule="evenodd" d="M16.3366 17.4579L15.2348 16.3561C14.2161 16.9004 13.1228 17.25 12 17.25C10.4012 17.25 8.86216 16.5412 7.51314 15.5706C6.17004 14.6043 5.07857 13.4238 4.39089 12.5889C4.18306 12.3366 4.08071 12.2092 4.01939 12.1064C3.97948 12.0395 3.9796 12.0205 3.97972 12.0029L3.97974 12L3.97972 11.9971C3.9796 11.9795 3.97948 11.9605 4.01939 11.8936C4.08071 11.7908 4.18306 11.6634 4.39089 11.4111C5.05821 10.6009 6.10575 9.46532 7.39448 8.5158L6.32296 7.44428C4.98311 8.46349 3.91313 9.6318 3.23307 10.4575C3.21055 10.4848 3.18764 10.5124 3.1645 10.5402L3.16443 10.5403C2.84447 10.9253 2.47974 11.3643 2.47974 12C2.47974 12.6357 2.84447 13.0747 3.16443 13.4597C3.18759 13.4876 3.21052 13.5152 3.23307 13.5425C3.96548 14.4318 5.15016 15.7184 6.63712 16.7882C8.11816 17.8538 9.9631 18.75 12 18.75C13.5897 18.75 15.0625 18.2041 16.3366 17.4579ZM8.99794 5.87662C9.93036 5.4931 10.9392 5.25 12 5.25C14.0369 5.25 15.8819 6.14624 17.3629 7.21178C18.8499 8.28159 20.0345 9.56824 20.767 10.4575C20.7895 10.4848 20.8123 10.5123 20.8355 10.5402L20.8356 10.5403C21.1556 10.9253 21.5203 11.3643 21.5203 12C21.5203 12.6357 21.1556 13.0747 20.8356 13.4597C20.8124 13.4876 20.7895 13.5152 20.767 13.5425C20.2834 14.1296 19.6027 14.8899 18.768 15.6467L17.706 14.5847C18.4938 13.8768 19.1439 13.1538 19.6091 12.5889C19.817 12.3366 19.9193 12.2092 19.9806 12.1064C20.0205 12.0395 20.0204 12.0205 20.0203 12.0029L20.0203 12L20.0203 11.9971C20.0204 11.9795 20.0205 11.9605 19.9806 11.8936C19.9193 11.7908 19.817 11.6634 19.6091 11.4111C18.9214 10.5762 17.83 9.3957 16.4869 8.4294C15.1379 7.45883 13.5988 6.75 12 6.75C11.3775 6.75 10.764 6.85746 10.1673 7.046L8.99794 5.87662Z" fill="#313130"/>
<path d="M5 2L21 18" stroke="#313130" stroke-width="1.5"/>
</svg>
