<svg width="24" height="24" viewBox="0 0 24 24" fill="none" xmlns="http://www.w3.org/2000/svg">
<path d="M20.75 1H4.25C3.65326 1 3.08097 1.23705 2.65901 1.65901C2.23705 2.08097 2 2.65326 2 3.25L2 19.75C2 20.3467 2.23705 20.919 2.65901 21.341C3.08097 21.7629 3.65326 22 4.25 22H10.6836V14.8605H7.73047V11.5H10.6836V8.93875C10.6836 6.02547 12.418 4.41625 15.0744 4.41625C16.3466 4.41625 17.6769 4.64313 17.6769 4.64313V7.5025H16.2111C14.7669 7.5025 14.3164 8.39875 14.3164 9.31797V11.5H17.5405L17.0248 14.8605H14.3164V22H20.75C21.3467 22 21.919 21.7629 22.341 21.341C22.7629 20.919 23 20.3467 23 19.75V3.25C23 2.65326 22.7629 2.08097 22.341 1.65901C21.919 1.23705 21.3467 1 20.75 1Z" fill="#313130"/>
</svg>
