<svg width="159" height="44" viewBox="0 0 159 44" fill="none" xmlns="http://www.w3.org/2000/svg">
<g clip-path="url(#clip0_953_13592)">
<path fill-rule="evenodd" clip-rule="evenodd" d="M93.7986 0.0705902C92.7172 0.0689484 92.0012 0.0771573 90.9099 0.136262C89.5635 0.208501 88.2056 0.357904 86.9662 0.853724C85.6017 1.3988 84.3804 2.36253 83.429 3.5085C82.8332 4.22596 82.3443 5.01566 81.9658 5.8579C81.6465 6.5688 81.5164 7.31089 81.3601 8.07268C81.3057 8.33372 81.2778 9.21208 81.2629 10.5189V39.8775L85.8009 39.8791C85.8009 39.8791 85.791 18.2058 85.791 17.7198C89.7643 15.3343 91.9535 14.5118 92.9624 12.0376C93.6225 10.4172 93.8002 8.75402 93.8002 7.25343C93.8002 0.0705901 93.8019 0.346411 93.7986 0.0705902ZM89.98 8.32387C89.9108 9.77193 88.7735 11.0985 87.6065 11.9654C86.5695 12.7354 85.7926 13.2837 85.7926 13.2837C85.7926 13.2837 85.7778 9.98044 85.7992 9.33357C85.8272 8.49134 85.9144 7.63596 86.1877 6.87089C86.4329 6.18462 86.8296 5.56895 87.3069 5.09447C87.6756 4.72999 88.092 4.44761 88.5381 4.27029C88.9677 4.09955 89.5833 3.89925 90.0326 3.91238C90.0359 4.27029 90.0705 6.40626 89.98 8.32387Z" fill="#313130"/>
<path d="M26.0458 0.0656738V9.4206L21.5145 13.2476V0.0656738H16.9832V39.8775H21.5145V16.3933L26.0458 12.5663V39.8775H30.5788V0.0656738H26.0458Z" fill="#313130"/>
<path d="M43.6197 0.0656738V13.4364L39.0868 9.60941V0.0656738H34.5554V39.8775H39.0868V12.7551L43.6197 16.5821V39.8775H48.1511V0.0656738H43.6197Z" fill="#313130"/>
<path d="M6.35512 12.5876C13.2616 7.43075 12.7629 0.0656738 12.7629 0.0656738H0.0494385V39.8775H14.3792C14.2327 36.0931 15.6038 20.2416 6.35512 12.5876ZM9.01171 2.46597C8.3023 7.87403 4.58077 11.5861 4.58077 11.5861V2.46597H9.01171ZM4.58077 37.4772V13.9864C8.05046 17.0188 10.289 26.203 9.88571 37.4772H4.58077Z" fill="#313130"/>
<path d="M150.927 12.5876C157.833 7.43075 157.334 0.0656738 157.334 0.0656738H144.621V39.8775H158.951C158.804 36.0931 160.175 20.2416 150.927 12.5876ZM153.583 2.46597C152.874 7.87403 149.152 11.5861 149.152 11.5861V2.46597H153.583ZM149.154 37.4772V13.9864C152.624 17.0188 154.862 26.203 154.459 37.4772H149.154Z" fill="#313130"/>
<path d="M101.372 0.0656738V8.57015L95.8609 12.8552C95.8609 12.8552 93.0051 14.9551 93.0051 18.5851V39.8791H97.5365V25.4609L101.372 22.2216V39.8791H105.903V0.0656738H101.372ZM97.5381 22.3152V18.5867C97.5381 18.5867 97.3357 16.0666 99.1117 14.5972C99.7914 14.034 100.614 13.3494 101.373 12.7173V19.0776L97.5381 22.3152Z" fill="#313130"/>
<path fill-rule="evenodd" clip-rule="evenodd" d="M122.985 37.4952V0.0459595H109.87V1.98327C109.87 2.28044 109.983 2.56611 110.187 2.78118L113.7 6.50477H114.572V2.44462H118.453V8.68506L113.091 12.8552C113.091 12.8552 110.235 14.9551 110.235 18.5851C110.235 20.918 110.258 37.4936 110.258 37.4936H108.146V39.4309C108.146 39.728 108.26 40.0137 108.464 40.2288L111.977 43.9524H112.849V39.8955H120.396V43.9557H121.268L124.78 40.2321C124.985 40.0154 125.098 39.7297 125.098 39.4342V37.4969H122.985V37.4952ZM114.789 18.5867C114.789 18.5867 114.653 16.0419 116.338 14.5972C116.969 14.057 117.732 13.4167 118.453 12.8175V37.4952H114.789V18.5867Z" fill="#313130"/>
<path fill-rule="evenodd" clip-rule="evenodd" d="M69.3033 0.0656738L69.2935 0.0673156L69.305 39.8791H73.8248V2.46433H77.7093V6.51299H77.7126V6.52448H78.5849L82.0974 2.8009C82.3015 2.58418 82.4151 2.29851 82.4151 2.00299V0.0656738H69.3033Z" fill="#313130"/>
<path d="M61.0999 30.5028C61.1015 30.4963 61.0999 30.493 61.0999 30.5028V30.5028Z" fill="#313130"/>
<path d="M65.6329 30.534V0.0656738H61.1015C60.8135 0.0804499 60.5304 0.0919425 60.2391 0.114928L59.8012 0.159256L59.5823 0.183883L59.3601 0.221644L58.9157 0.30045C58.7676 0.331644 58.6178 0.372689 58.4697 0.41045C58.1734 0.481047 57.8738 0.587763 57.5759 0.682987C56.9833 0.907913 56.399 1.18702 55.8493 1.54C55.3061 1.9012 54.8008 2.32314 54.3696 2.8009C54.2642 2.92239 54.1556 3.04224 54.0585 3.16702L53.7704 3.54627C53.591 3.80403 53.4281 4.07 53.2799 4.33926C52.9853 4.87776 52.7499 5.42941 52.5639 5.98269C52.3829 6.53926 52.2545 7.09747 52.1607 7.65732C52.1146 7.93806 52.0866 8.22045 52.0652 8.50612C52.0553 8.64896 52.0471 8.79344 52.0422 8.9412L52.0372 9.16776L52.0389 9.45015H52.0405V39.8775H56.5719C56.8599 39.8627 57.143 39.8512 57.4343 39.8282L57.8722 39.7839L58.0911 39.7593L58.3133 39.7215L58.7577 39.6427C58.9058 39.6115 59.0556 39.5705 59.2038 39.5327C59.5 39.4621 59.7996 39.3554 60.0975 39.2602C60.6901 39.0352 61.2744 38.7545 61.8241 38.4031C62.3673 38.0419 62.8726 37.62 63.3038 37.1422C63.4092 37.0208 63.5178 36.9009 63.6149 36.7761L63.903 36.3969C64.0824 36.1391 64.2453 35.8731 64.3918 35.6039C64.6865 35.0654 64.9202 34.5137 65.1078 33.9605C65.2889 33.4039 65.4173 32.8457 65.5094 32.2858C65.5555 32.0051 65.5835 31.7227 65.6049 31.437C65.6148 31.2942 65.623 31.1497 65.6279 31.0019L65.6329 30.7754V30.534ZM61.1032 30.6818C61.1048 30.7639 61.1032 30.8493 61.1015 30.9363C61.0999 31.1103 61.0802 31.2876 61.0719 31.4682C61.0439 31.8245 61.0044 32.184 60.9402 32.5321C60.8826 32.8834 60.7954 33.2216 60.6933 33.5516C60.588 33.8816 60.4563 34.1952 60.3066 34.5088C60.1551 34.8208 59.9856 35.1393 59.7601 35.4348C59.6416 35.576 59.5231 35.727 59.3815 35.8584C59.3124 35.9257 59.2416 35.993 59.1626 36.0505C59.0852 36.1112 59.0079 36.1736 58.9256 36.2294C58.2623 36.6612 57.4245 36.9321 56.5669 36.9173V9.38612H56.5636C56.5636 9.38448 56.5636 9.38284 56.5636 9.3812V9.26299C56.562 9.1809 56.5636 9.09552 56.5653 9.00851C56.5669 8.83448 56.5883 8.65717 56.5949 8.47657C56.6229 8.1203 56.6624 7.76075 56.7266 7.41269C56.7858 7.06135 56.8714 6.72314 56.9735 6.39314C57.0788 6.06314 57.2105 5.74955 57.3603 5.43597C57.5117 5.12403 57.6812 4.80552 57.9084 4.51C58.0269 4.36881 58.1454 4.21776 58.287 4.08642C58.3561 4.01911 58.4269 3.95179 58.5059 3.89433C58.5832 3.83358 58.6606 3.7712 58.7429 3.71538C59.4062 3.28358 60.244 3.01269 61.1015 3.02747V30.4996C61.1015 30.5028 61.1015 30.5045 61.1015 30.5094V30.5308C61.1015 30.5422 61.1015 30.5521 61.1015 30.5603L61.1032 30.6818Z" fill="#313130"/>
<path d="M136.126 30.5028C136.128 30.4963 136.128 30.493 136.126 30.5028V30.5028Z" fill="#313130"/>
<path d="M140.661 30.534V0.0656738H136.129C135.841 0.0804499 135.558 0.0919425 135.267 0.114928L134.829 0.159256L134.61 0.183883L134.388 0.221644L133.944 0.30045C133.795 0.331644 133.646 0.372689 133.497 0.41045C133.201 0.481047 132.902 0.587763 132.604 0.682987C132.011 0.907913 131.427 1.18702 130.877 1.54C130.334 1.9012 129.829 2.32314 129.397 2.8009C129.292 2.92239 129.183 3.04224 129.086 3.16702L128.798 3.54627C128.619 3.80403 128.456 4.07 128.308 4.33926C128.013 4.87776 127.778 5.42941 127.592 5.98269C127.411 6.53926 127.282 7.09747 127.189 7.65732C127.142 7.93806 127.114 8.22045 127.093 8.50612C127.083 8.64896 127.075 8.79344 127.07 8.9412L127.065 9.16776L127.067 9.45015H127.068V39.8775H131.6C131.888 39.8627 132.171 39.8512 132.462 39.8282L132.9 39.7839L133.119 39.7593L133.341 39.7215L133.786 39.6427C133.934 39.6115 134.083 39.5705 134.232 39.5327C134.528 39.4621 134.827 39.3554 135.125 39.2602C135.718 39.0352 136.302 38.7545 136.852 38.4031C137.395 38.0419 137.9 37.62 138.332 37.1422C138.437 37.0208 138.546 36.9009 138.643 36.7761L138.931 36.3969C139.11 36.1391 139.273 35.8731 139.42 35.6039C139.714 35.0654 139.948 34.5137 140.136 33.9605C140.317 33.4039 140.445 32.8457 140.537 32.2858C140.583 32.0051 140.611 31.7227 140.633 31.437C140.643 31.2942 140.651 31.1497 140.656 31.0019L140.661 30.7754V30.534ZM136.129 30.6818C136.131 30.7639 136.129 30.8493 136.128 30.9363C136.126 31.1103 136.106 31.2876 136.098 31.4682C136.07 31.8245 136.031 32.184 135.966 32.5321C135.909 32.8834 135.822 33.2216 135.72 33.5516C135.614 33.8816 135.483 34.1952 135.333 34.5088C135.181 34.8208 135.012 35.1393 134.786 35.4348C134.668 35.576 134.549 35.727 134.408 35.8584C134.339 35.9257 134.268 35.993 134.189 36.0505C134.111 36.1112 134.034 36.1736 133.952 36.2294C133.288 36.6612 132.451 36.9321 131.593 36.9173V9.38612H131.59C131.59 9.38448 131.59 9.38284 131.59 9.3812V9.26299C131.588 9.1809 131.59 9.09552 131.591 9.00851C131.593 8.83448 131.615 8.65717 131.621 8.47657C131.649 8.1203 131.689 7.76075 131.753 7.41269C131.812 7.06135 131.898 6.72314 132 6.39314C132.105 6.06314 132.237 5.74955 132.386 5.43597C132.538 5.12403 132.707 4.80552 132.935 4.51C133.053 4.36881 133.172 4.21776 133.313 4.08642C133.382 4.01911 133.453 3.95179 133.532 3.89433C133.609 3.83358 133.687 3.7712 133.769 3.71538C134.432 3.28358 135.27 3.01269 136.128 3.02747V30.4996C136.128 30.5028 136.128 30.5045 136.128 30.5094V30.5308C136.128 30.5422 136.128 30.5521 136.128 30.5603L136.129 30.6818Z" fill="#313130"/>
</g>
<defs>
<clipPath id="clip0_953_13592">
<rect width="159" height="44" fill="white"/>
</clipPath>
</defs>
</svg>
