<svg width="115" height="125" viewBox="0 0 115 125" fill="none" xmlns="http://www.w3.org/2000/svg">
<path d="M60.0251 30.5395C70.4048 28.1714 78.4227 20.3185 78.4227 0.14502H51.2635V26.3713C46.1158 23.579 42.5019 17.0176 42.5019 9.36912V0.14502H33.7402V74.4903H42.5019V25.0904C43.4606 26.0314 47.305 29.7327 51.2635 31.4473V74.4891H83.6369C83.6369 38.9948 60.0251 30.5395 60.0251 30.5395ZM60.0251 3.70134H71.1176C71.3505 21.2798 61.6978 27.3408 60.0251 27.3408V3.70134ZM75.3291 70.934H60.0251V36.313C68.9839 41.717 75.3279 55.1628 75.3279 70.896V70.934H75.3291Z" fill="white"/>
<path fill-rule="evenodd" clip-rule="evenodd" d="M67.8194 93.0953C67.0389 93.0942 66.5221 93.1001 65.7345 93.1429C64.7627 93.1952 63.7825 93.3033 62.888 93.6621C61.9031 94.0566 61.0216 94.7541 60.3349 95.5835C59.9049 96.1027 59.552 96.6742 59.2788 97.2838C59.0483 97.7983 58.9544 98.3354 58.8416 98.8867C58.8024 99.0756 58.7822 99.7113 58.7715 100.657V121.905L62.0469 121.906C62.0469 121.906 62.0397 106.22 62.0397 105.869C64.9076 104.142 66.4876 103.547 67.2159 101.756C67.6923 100.583 67.8206 99.3798 67.8206 98.2938C67.8206 93.0953 67.8218 93.295 67.8194 93.0953ZM65.0632 99.0685C65.0133 100.117 64.1924 101.077 63.3501 101.704C62.6017 102.261 62.0409 102.658 62.0409 102.658C62.0409 102.658 62.0302 100.267 62.0457 99.7992C62.0659 99.1897 62.1288 98.5706 62.326 98.0169C62.503 97.5203 62.7894 97.0747 63.1339 96.7313C63.4 96.4675 63.7006 96.2631 64.0225 96.1348C64.3326 96.0112 64.7769 95.8663 65.1012 95.8758C65.1036 96.1348 65.1286 97.6807 65.0632 99.0685Z" fill="white"/>
<path d="M18.9182 93.0918V99.8622L15.6476 102.633V93.0918H12.377V121.906H15.6476V104.909L18.9182 102.139V121.906H22.19V93.0918H18.9182Z" fill="white"/>
<path d="M31.603 93.0918V102.769L28.3312 99.9989V93.0918H25.0605V121.906H28.3312V102.275L31.603 105.045V121.906H34.8736V93.0918H31.603Z" fill="white"/>
<path d="M4.70559 102.154C9.69051 98.4221 9.33054 93.0918 9.33054 93.0918H0.154297V121.905H10.4972C10.3914 119.167 11.3811 107.694 4.70559 102.154ZM6.62305 94.829C6.11101 98.7429 3.42491 101.429 3.42491 101.429V94.829H6.62305ZM3.42491 120.169V103.168C5.92925 105.362 7.54495 112.009 7.25388 120.169H3.42491Z" fill="white"/>
<path d="M109.053 102.154C114.038 98.4221 113.678 93.0918 113.678 93.0918H104.502V121.905H114.845C114.739 119.167 115.729 107.694 109.053 102.154ZM110.971 94.829C110.459 98.7429 107.773 101.429 107.773 101.429V94.829H110.971ZM107.774 120.169V103.168C110.278 105.362 111.894 112.009 111.603 120.169H107.774Z" fill="white"/>
<path d="M73.2867 93.0918V99.2467L69.3093 102.348C69.3093 102.348 67.248 103.868 67.248 106.495V121.905H70.5187V111.47L73.2867 109.126V121.905H76.5573V93.0906H73.2867V93.0918ZM70.5198 109.194V106.496C70.5198 106.496 70.3737 104.672 71.6556 103.609C72.1462 103.201 72.7403 102.706 73.2879 102.248V106.851L70.5198 109.194Z" fill="white"/>
<path fill-rule="evenodd" clip-rule="evenodd" d="M88.8858 120.181V93.0776H79.4196V94.4797C79.4196 94.6948 79.5016 94.9015 79.6489 95.0572L82.1842 97.7521H82.8138V94.8136H85.6151V99.33L81.7446 102.348C81.7446 102.348 79.6834 103.868 79.6834 106.495C79.6834 108.183 79.7 120.18 79.7 120.18H78.1758V121.582C78.1758 121.797 78.2578 122.003 78.4051 122.159L80.9403 124.854H81.5699V121.916H87.017V124.854H87.6467L90.1819 122.159C90.3292 122.002 90.4112 121.796 90.4112 121.582V120.18H88.8858V120.181ZM82.9706 106.496C82.9706 106.496 82.872 104.654 84.0885 103.609C84.5436 103.218 85.0948 102.754 85.6151 102.321V120.181H82.9706V106.496Z" fill="white"/>
<path fill-rule="evenodd" clip-rule="evenodd" d="M50.1399 93.0918L50.1328 93.093L50.1411 121.906H53.4034V94.829H56.2071V97.7591H56.2095V97.7674H56.8392L59.3744 95.0725C59.5217 94.9157 59.6037 94.709 59.6037 94.4951V93.093L50.1399 93.0918Z" fill="white"/>
<path d="M44.2188 115.12C44.2199 115.115 44.2188 115.113 44.2188 115.12V115.12Z" fill="white"/>
<path d="M47.4907 115.143V93.0918H44.2201C44.0122 93.1025 43.8079 93.1108 43.5976 93.1274L43.2816 93.1595L43.1236 93.1773L42.9632 93.2047L42.6425 93.2617C42.5355 93.2843 42.4274 93.314 42.3205 93.3413C42.1067 93.3924 41.8904 93.4696 41.6754 93.5386C41.2477 93.7013 40.826 93.9033 40.4292 94.1588C40.0371 94.4202 39.6724 94.7256 39.3612 95.0714C39.2851 95.1593 39.2067 95.246 39.1366 95.3363L38.9287 95.6108C38.7992 95.7974 38.6816 95.9898 38.5747 96.1847C38.362 96.5744 38.1921 96.9737 38.0579 97.3741C37.9272 97.7769 37.8346 98.1809 37.7668 98.5861C37.7336 98.7893 37.7134 98.9936 37.6979 99.2004C37.6908 99.3038 37.6849 99.4083 37.6813 99.5153L37.6777 99.6792L37.6789 99.8836H37.6801V121.905H40.9507C41.1586 121.894 41.363 121.886 41.5732 121.869L41.8893 121.837L42.0473 121.819L42.2076 121.792L42.5284 121.735C42.6353 121.712 42.7434 121.683 42.8504 121.655C43.0642 121.604 43.2804 121.527 43.4955 121.458C43.9231 121.295 44.3449 121.092 44.7417 120.838C45.1337 120.576 45.4984 120.271 45.8097 119.925C45.8857 119.837 45.9641 119.751 46.0342 119.66L46.2421 119.386C46.3716 119.199 46.4893 119.007 46.595 118.812C46.8076 118.422 46.9763 118.023 47.1118 117.622C47.2425 117.22 47.3351 116.816 47.4016 116.41C47.4349 116.207 47.4551 116.003 47.4706 115.796C47.4777 115.693 47.4836 115.588 47.4872 115.481L47.4907 115.317V115.143ZM44.2213 115.25C44.2225 115.309 44.2213 115.371 44.2201 115.434C44.219 115.56 44.2047 115.688 44.1988 115.819C44.1786 116.077 44.15 116.337 44.1037 116.589C44.0621 116.843 43.9992 117.088 43.9255 117.327C43.8495 117.565 43.7544 117.792 43.6463 118.019C43.537 118.245 43.4147 118.476 43.2519 118.689C43.1664 118.792 43.0808 118.901 42.9787 118.996C42.9288 119.045 42.8777 119.093 42.8207 119.135C42.7648 119.179 42.709 119.224 42.6496 119.265C42.1708 119.577 41.5661 119.773 40.9472 119.762V99.8373H40.9448C40.9448 99.8361 40.9448 99.8349 40.9448 99.8337V99.7482C40.9436 99.6887 40.9448 99.627 40.946 99.564C40.9472 99.438 40.9626 99.3097 40.9674 99.179C40.9875 98.9212 41.0161 98.661 41.0624 98.409C41.1052 98.1548 41.1669 97.91 41.2406 97.6712C41.3166 97.4323 41.4117 97.2054 41.5198 96.9784C41.6291 96.7527 41.7514 96.5222 41.9154 96.3083C42.0009 96.2061 42.0865 96.0968 42.1886 96.0017C42.2385 95.953 42.2896 95.9043 42.3466 95.8627C42.4025 95.8187 42.4583 95.7736 42.5177 95.7332C42.9965 95.4207 43.6012 95.2246 44.2201 95.2353V115.118C44.2201 115.12 44.2201 115.121 44.2201 115.125V115.14C44.2201 115.149 44.2201 115.156 44.2201 115.162L44.2213 115.25Z" fill="white"/>
<path d="M98.3711 115.12C98.3723 115.115 98.3723 115.113 98.3711 115.12V115.12Z" fill="white"/>
<path d="M101.645 115.143V93.0918H98.3744C98.1665 93.1025 97.9622 93.1108 97.7519 93.1274L97.4359 93.1595L97.2779 93.1773L97.1175 93.2047L96.7968 93.2617C96.6898 93.2843 96.5817 93.314 96.4748 93.3413C96.261 93.3924 96.0447 93.4696 95.8297 93.5386C95.402 93.7013 94.9803 93.9033 94.5835 94.1588C94.1914 94.4202 93.8267 94.7256 93.5155 95.0714C93.4394 95.1593 93.361 95.246 93.2909 95.3363L93.083 95.6108C92.9535 95.7974 92.8359 95.9898 92.729 96.1847C92.5163 96.5744 92.3464 96.9737 92.2122 97.3741C92.0815 97.7769 91.9888 98.1809 91.9211 98.5861C91.8879 98.7893 91.8677 98.9936 91.8522 99.2004C91.8451 99.3038 91.8392 99.4083 91.8356 99.5153L91.832 99.6792L91.8332 99.8836H91.8344V121.905H95.105C95.3129 121.894 95.5173 121.886 95.7275 121.869L96.0436 121.837L96.2016 121.819L96.3619 121.792L96.6827 121.735C96.7896 121.712 96.8977 121.683 97.0047 121.655C97.2185 121.604 97.4347 121.527 97.6498 121.458C98.0774 121.295 98.4992 121.092 98.896 120.838C99.288 120.576 99.6527 120.271 99.964 119.925C100.04 119.837 100.118 119.751 100.189 119.66L100.396 119.386C100.526 119.199 100.644 119.007 100.749 118.812C100.962 118.422 101.131 118.023 101.266 117.622C101.397 117.22 101.489 116.816 101.556 116.41C101.589 116.207 101.609 116.003 101.625 115.796C101.632 115.693 101.638 115.588 101.641 115.481L101.645 115.317V115.143ZM98.3744 115.25C98.3756 115.309 98.3744 115.371 98.3732 115.434C98.3721 115.56 98.3578 115.688 98.3519 115.819C98.3317 116.077 98.3032 116.337 98.2568 116.589C98.2152 116.843 98.1523 117.088 98.0786 117.327C98.0026 117.565 97.9076 117.792 97.7994 118.019C97.6901 118.245 97.5678 118.476 97.405 118.689C97.3195 118.792 97.2339 118.901 97.1318 118.996C97.0819 119.045 97.0308 119.093 96.9738 119.135C96.9179 119.179 96.8621 119.224 96.8027 119.265C96.3239 119.577 95.7192 119.773 95.1003 119.762V99.8373H95.0979C95.0979 99.8361 95.0979 99.8349 95.0979 99.8337V99.7482C95.0967 99.6887 95.0979 99.627 95.0991 99.564C95.1003 99.438 95.1157 99.3097 95.1205 99.179C95.1407 98.9212 95.1692 98.661 95.2155 98.409C95.2583 98.1548 95.3201 97.91 95.3937 97.6712C95.4697 97.4323 95.5648 97.2054 95.6729 96.9784C95.7822 96.7527 95.9046 96.5222 96.0685 96.3083C96.154 96.2061 96.2396 96.0968 96.3417 96.0017C96.3916 95.953 96.4427 95.9043 96.4998 95.8627C96.5556 95.8187 96.6114 95.7736 96.6708 95.7332C97.1496 95.4207 97.7543 95.2246 98.3732 95.2353V115.118C98.3732 115.12 98.3732 115.121 98.3732 115.125V115.14C98.3732 115.149 98.3732 115.156 98.3732 115.162L98.3744 115.25Z" fill="white"/>
</svg>
