<svg width="152" height="226" viewBox="0 0 152 226" fill="none" xmlns="http://www.w3.org/2000/svg">
<g clip-path="url(#clip0_783_5743)">
<path fill-rule="evenodd" clip-rule="evenodd" d="M80.0577 82.6813V7.70554H113.857V28.042C113.857 54.7268 99.4251 76.946 80.0577 82.6813ZM80.0577 215.186V109.935C107.475 126.375 126.689 167.245 126.689 215.077L80.0577 215.186ZM26.6932 28.042V0H0V226H26.6932V75.8295C29.5522 78.6529 32.657 81.2169 35.9711 83.4913C39.8534 86.2057 43.7356 88.9421 47.4205 91.3938C49.4384 92.7292 51.4124 93.9769 53.3864 95.159V226H152.088C152.166 218.315 151.631 210.636 150.487 203.037C148.59 188.542 144.815 174.355 139.257 160.831C132.61 145.735 123.739 131.716 112.936 119.239C105.784 111.168 97.624 104.047 88.6557 98.0486C85.3656 95.8596 82.6897 93.9769 80.1454 92.357C111.686 85.1988 135.747 50.086 136.098 7.70554V0H53.3864V79.7261C37.7039 71.2325 26.6932 51.29 26.6932 28.042Z" fill="#F1F2F2"/>
</g>
<defs>
<clipPath id="clip0_783_5743">
<rect width="152" height="226" fill="white"/>
</clipPath>
</defs>
</svg>
