<svg width="30" height="30" viewBox="0 0 30 30" xmlns="http://www.w3.org/2000/svg">
<path d="M13.5151 6.56347C13.5151 6.01551 12.6267 5.57141 11.531 5.57141C10.4353 5.57141 9.54688 6.01551 9.54688 6.56347C9.54688 7.11143 10.4353 7.55554 11.531 7.55554C12.6267 7.55554 13.5151 7.11143 13.5151 6.56347Z"/>
<path d="M24.4286 9.93651H11.5317C7.1469 9.93651 4.19048 8.19052 4.19048 6.56349C4.19048 4.93647 7.1469 3.19048 11.5317 3.19048C15.9166 3.19048 18.873 4.93647 18.873 6.56349V8.15079C18.873 8.48813 19.1309 8.74603 19.4683 8.74603C19.8056 8.74603 20.0635 8.48813 20.0635 8.15079V6.56349C20.0635 4.00389 16.3134 2 11.5317 2C6.75008 2 3 4.00389 3 6.56349V16.4841C3 18.5277 5.44044 20.2937 9.05159 20.8492H9.15079C9.44841 20.8492 9.68655 20.631 9.74603 20.3532C9.80552 20.0358 9.56738 19.7182 9.25 19.6785C6.31353 19.2222 4.19048 17.873 4.19048 16.4841V8.92468C5.65881 10.2539 8.37691 11.127 11.5317 11.127H24.4286C25.738 11.127 26.8095 12.1985 26.8095 13.5079C26.8095 14.8174 25.738 15.8889 24.4286 15.8889H13.5159C12.0873 15.8889 10.9365 17.0396 10.9365 18.4683V24.4206C10.9365 25.8492 12.0873 27 13.5159 27H24.4286C26.3929 27 28 25.3929 28 23.4286V13.5079C28 11.5436 26.3929 9.93651 24.4286 9.93651ZM26.8095 23.4286C26.8095 24.738 25.738 25.8095 24.4286 25.8095H13.5159C12.742 25.8095 12.127 25.1945 12.127 24.4206V18.4683C12.127 17.6944 12.742 17.0794 13.5159 17.0794H16.8889V19.4603C16.8889 19.7977 17.1468 20.0556 17.4841 20.0556C17.8215 20.0556 18.0794 19.7977 18.0794 19.4603V17.0794H22.8413V19.4603C22.8413 19.7977 23.0992 20.0556 23.4365 20.0556C23.7738 20.0556 24.0317 19.7977 24.0317 19.4603V17.0794H24.4286C25.3412 17.0794 26.1746 16.742 26.8095 16.1667V23.4286Z"/>
</svg>
