<svg width="24" height="24" viewBox="0 0 24 24" xmlns="http://www.w3.org/2000/svg">
<path d="M12.398 19.804L12.7434 20.4697H12.7434L12.398 19.804ZM11.602 19.804L11.2566 20.4697H11.2566L11.602 19.804ZM18.25 11C18.25 13.2364 17.111 15.0661 15.7225 16.4666C14.3347 17.8664 12.7605 18.7711 12.0527 19.1382L12.7434 20.4697C13.5185 20.0677 15.2453 19.0785 16.7877 17.5227C18.3295 15.9676 19.75 13.78 19.75 11H18.25ZM12 4.75C15.4518 4.75 18.25 7.54822 18.25 11H19.75C19.75 6.71979 16.2802 3.25 12 3.25V4.75ZM5.75 11C5.75 7.54822 8.54822 4.75 12 4.75V3.25C7.71979 3.25 4.25 6.71979 4.25 11H5.75ZM11.9473 19.1382C11.2395 18.7711 9.66527 17.8664 8.27749 16.4666C6.88902 15.0661 5.75 13.2364 5.75 11H4.25C4.25 13.78 5.67049 15.9676 7.21227 17.5227C8.75474 19.0785 10.4815 20.0677 11.2566 20.4697L11.9473 19.1382ZM12.0527 19.1382C12.0164 19.157 11.9836 19.157 11.9473 19.1382L11.2566 20.4697C11.726 20.7132 12.274 20.7132 12.7434 20.4697L12.0527 19.1382ZM14.25 11C14.25 12.2426 13.2426 13.25 12 13.25V14.75C14.0711 14.75 15.75 13.0711 15.75 11H14.25ZM12 8.75C13.2426 8.75 14.25 9.75736 14.25 11H15.75C15.75 8.92893 14.0711 7.25 12 7.25V8.75ZM9.75 11C9.75 9.75736 10.7574 8.75 12 8.75V7.25C9.92893 7.25 8.25 8.92893 8.25 11H9.75ZM12 13.25C10.7574 13.25 9.75 12.2426 9.75 11H8.25C8.25 13.0711 9.92893 14.75 12 14.75V13.25Z" />
</svg>
