<svg width="110" height="110" viewBox="0 0 110 110" fill="none" xmlns="http://www.w3.org/2000/svg">
<path d="M46.97 70.0699C46.97 65.2849 45.65 61.2149 43.01 57.8599C38.995 52.7999 31.24 52.1949 26.73 53.1849C24.86 42.5699 33.88 29.0399 45.54 23.2099L36.575 10.6699C18.975 19.0299 1.70503 38.2799 4.67503 62.5349C6.54503 77.8799 15.4 87.9999 27.94 87.9999C33.44 87.9999 38.005 86.4049 41.58 83.1599C45.21 79.9149 46.97 75.5699 46.97 70.0699ZM98.835 70.0699C98.835 65.2849 97.515 61.2149 94.875 57.8599C90.86 52.7999 83.105 52.1949 78.595 53.1849C76.725 42.5699 85.745 29.0399 97.405 23.2099L88.44 10.6699C70.84 19.0299 53.57 38.2799 56.54 62.5349C58.41 77.8799 67.265 87.9999 79.805 87.9999C85.305 87.9999 89.87 86.4049 93.445 83.1599C97.075 79.9149 98.835 75.5699 98.835 70.0699Z" fill="#F1F2F2"/>
</svg>
