<svg width="24" height="24" viewBox="0 0 24 24" fill="none" xmlns="http://www.w3.org/2000/svg">
<path d="M5.93782 9.49999C5.16735 10.8345 4.85875 12.3859 5.05988 13.9137C5.26102 15.4414 5.96064 16.8601 7.05025 17.9497C8.13986 19.0393 9.55856 19.739 11.0863 19.9401C12.6141 20.1412 14.1655 19.8326 15.5 19.0622C16.8345 18.2917 17.8775 17.1024 18.4672 15.6788C19.0568 14.2551 19.1603 12.6767 18.7615 11.1883C18.3627 9.69982 17.4838 8.38458 16.2613 7.44652C15.0388 6.50845 13.5409 5.99999 12 5.99999H11M11 5.99999L14 3M11 5.99999L13.5 9" stroke-width="1.5" stroke-linecap="round"/>
</svg>
