<svg width="24" height="24" viewBox="0 0 24 24" fill="none" xmlns="http://www.w3.org/2000/svg">
<path d="M9 6C9 6.39397 9.0776 6.78407 9.22836 7.14805C9.37913 7.51203 9.6001 7.84274 9.87868 8.12132C10.1573 8.3999 10.488 8.62087 10.852 8.77164C11.2159 8.9224 11.606 9 12 9C12.394 9 12.7841 8.9224 13.1481 8.77164C13.512 8.62087 13.8427 8.3999 14.1213 8.12132C14.3999 7.84274 14.6209 7.51203 14.7716 7.14805C14.9224 6.78407 15 6.39396 15 6C15 5.60603 14.9224 5.21593 14.7716 4.85195C14.6209 4.48797 14.3999 4.15725 14.1213 3.87868C13.8427 3.6001 13.512 3.37912 13.148 3.22836C12.7841 3.0776 12.394 3 12 3C11.606 3 11.2159 3.0776 10.8519 3.22836C10.488 3.37913 10.1573 3.6001 9.87868 3.87868C9.6001 4.15726 9.37912 4.48797 9.22836 4.85195C9.0776 5.21593 9 5.60604 9 6L9 6Z" stroke="#313130" stroke-width="1.5"/>
<path d="M4.43781 13.9015C4.09663 14.0985 3.79758 14.3607 3.55775 14.6733C3.31792 14.9858 3.142 15.3426 3.04004 15.7231C2.93807 16.1037 2.91206 16.5006 2.96348 16.8912C3.0149 17.2818 3.14275 17.6584 3.33974 17.9996C3.53672 18.3408 3.79897 18.6398 4.11153 18.8796C4.42408 19.1195 4.78081 19.2954 5.16136 19.3974C5.5419 19.4993 5.9388 19.5253 6.32939 19.4739C6.71999 19.4225 7.09663 19.2946 7.43781 19.0977C7.779 18.9007 8.07804 18.6384 8.31787 18.3259C8.5577 18.0133 8.73362 17.6566 8.83559 17.276C8.93756 16.8955 8.96357 16.4986 8.91215 16.108C8.86072 15.7174 8.73287 15.3408 8.53589 14.9996C8.33891 14.6584 8.07665 14.3594 7.7641 14.1195C7.45154 13.8797 7.09481 13.7038 6.71427 13.6018C6.33373 13.4998 5.93683 13.4738 5.54623 13.5252C5.15564 13.5767 4.779 13.7045 4.43781 13.9015L4.43781 13.9015Z" stroke="#313130" stroke-width="1.5"/>
<path d="M19.5622 13.9015C19.9034 14.0985 20.2024 14.3607 20.4422 14.6733C20.6821 14.9859 20.858 15.3426 20.96 15.7231C21.0619 16.1037 21.0879 16.5006 21.0365 16.8912C20.9851 17.2818 20.8572 17.6584 20.6603 17.9996C20.4633 18.3408 20.201 18.6398 19.8885 18.8796C19.5759 19.1195 19.2192 19.2954 18.8386 19.3974C18.4581 19.4993 18.0612 19.5253 17.6706 19.4739C17.28 19.4225 16.9034 19.2946 16.5622 19.0977C16.221 18.9007 15.922 18.6384 15.6821 18.3259C15.4423 18.0133 15.2664 17.6566 15.1644 17.276C15.0624 16.8955 15.0364 16.4986 15.0879 16.108C15.1393 15.7174 15.2671 15.3408 15.4641 14.9996C15.6611 14.6584 15.9234 14.3594 16.2359 14.1195C16.5485 13.8797 16.9052 13.7038 17.2857 13.6018C17.6663 13.4998 18.0632 13.4738 18.4538 13.5252C18.8444 13.5767 19.221 13.7045 19.5622 13.9015L19.5622 13.9015Z" stroke="#313130" stroke-width="1.5"/>
<path fill-rule="evenodd" clip-rule="evenodd" d="M9.02518 6.38866C9.0084 6.26014 8.99993 6.1304 8.99993 6.00023C8.99993 5.60627 9.07753 5.21616 9.22829 4.85219C9.25323 4.79197 9.2801 4.73267 9.30882 4.67437C9.08693 4.74609 8.86764 4.82677 8.65152 4.91629C7.58992 5.35602 6.62532 6.00054 5.81281 6.81305C5.0003 7.62557 4.35578 8.59016 3.91605 9.65176C3.47632 10.7134 3.25 11.8512 3.25 13.0002C3.25 13.6175 3.31531 14.2315 3.44393 14.8322C3.48007 14.7782 3.518 14.7252 3.55768 14.6735C3.79752 14.361 4.09656 14.0987 4.43774 13.9017C4.55047 13.8367 4.66707 13.7791 4.78676 13.7294C4.76232 13.4876 4.75 13.2442 4.75 13.0002C4.75 12.0482 4.93753 11.1054 5.30187 10.2258C5.66622 9.34617 6.20025 8.54694 6.87347 7.87371C7.49522 7.25197 8.22443 6.74894 9.02518 6.38866ZM14.9747 6.3886C15.7755 6.74889 16.5047 7.25193 17.1265 7.87371C17.7997 8.54693 18.3338 9.34617 18.6981 10.2258C19.0625 11.1054 19.25 12.0481 19.25 13.0002C19.25 13.2442 19.2377 13.4876 19.2132 13.7294C19.3329 13.7792 19.4494 13.8367 19.5621 13.9017C19.9033 14.0987 20.2023 14.361 20.4422 14.6735C20.4819 14.7253 20.5199 14.7783 20.556 14.8324C20.6847 14.2316 20.75 13.6176 20.75 13.0002C20.75 11.8512 20.5237 10.7134 20.0839 9.65175C19.6442 8.59015 18.9997 7.62556 18.1872 6.81305C17.3747 6.00054 16.4101 5.35602 15.3485 4.91629C15.1323 4.82674 14.913 4.74605 14.691 4.67432C14.7198 4.73264 14.7466 4.79196 14.7716 4.85218C14.9223 5.21616 14.9999 5.60627 14.9999 6.00023C14.9999 6.13038 14.9915 6.2601 14.9747 6.3886ZM17.8653 19.4934C17.8003 19.4891 17.7353 19.4827 17.6705 19.4741C17.2799 19.4227 16.9033 19.2949 16.5621 19.0979C16.4495 19.0329 16.3415 18.9608 16.2387 18.8821C15.7849 19.2091 15.2937 19.4833 14.7745 19.6984C13.8948 20.0627 12.9521 20.2502 12 20.2502C11.0479 20.2502 10.1052 20.0627 9.22555 19.6984C8.7063 19.4833 8.21507 19.2091 7.76123 18.882C7.65841 18.9607 7.55037 19.0329 7.43775 19.0979C7.09656 19.2949 6.71992 19.4227 6.32932 19.4741C6.26458 19.4827 6.19966 19.4891 6.13468 19.4933C6.87577 20.1628 7.72684 20.7012 8.65152 21.0842C9.71312 21.5239 10.8509 21.7502 12 21.7502C13.1491 21.7502 14.2869 21.5239 15.3485 21.0842C16.2732 20.7012 17.1242 20.1628 17.8653 19.4934Z" fill="#313130"/>
</svg>
