<svg width="20" height="20" viewBox="0 0 20 20" xmlns="http://www.w3.org/2000/svg">
<path d="M7.25 7C7.25 7.41421 7.58579 7.75 8 7.75C8.41421 7.75 8.75 7.41421 8.75 7H7.25ZM8.75 13.5C8.75 13.0858 8.41421 12.75 8 12.75C7.58579 12.75 7.25 13.0858 7.25 13.5H8.75ZM2 10L1.43056 9.51191L1.03902 9.9687L1.4 10.45L2 10ZM9 10.75C9.41421 10.75 9.75 10.4142 9.75 10C9.75 9.58579 9.41421 9.25 9 9.25V10.75ZM11.236 17.5393L11.3593 16.7995L11.3593 16.7995L11.236 17.5393ZM8.53331 16.6655L7.9833 17.1754L7.98331 17.1754L8.53331 16.6655ZM8.41766 16.5289L7.82428 16.9876L7.82429 16.9876L8.41766 16.5289ZM17.0626 17.3038L17.5782 17.8484L17.5782 17.8484L17.0626 17.3038ZM16.8097 17.518L17.2622 18.1161L17.2622 18.1161L16.8097 17.518ZM11.236 3.12733L11.1127 2.38754L11.1127 2.38754L11.236 3.12733ZM16.8097 3.14871L16.3573 3.74688L16.3573 3.74688L16.8097 3.14871ZM17.0626 3.36292L17.5782 2.8183L17.5782 2.8183L17.0626 3.36292ZM8.53331 4.0012L9.08332 4.5111L9.08332 4.5111L8.53331 4.0012ZM8.41766 4.13773L9.01104 4.59642L9.01104 4.59642L8.41766 4.13773ZM17.25 8.8573V11.8094H18.75V8.8573H17.25ZM8.75 7V6.94617H7.25V7H8.75ZM8.75 13.7197V13.5H7.25V13.7197H8.75ZM2.56944 10.4881L5.56944 6.98809L4.43056 6.01191L1.43056 9.51191L2.56944 10.4881ZM1.4 10.45L4.4 14.45L5.6 13.55L2.6 9.55L1.4 10.45ZM9 9.25H2V10.75H9V9.25ZM11.3593 16.7995C10.5955 16.6722 10.0868 16.5862 9.70768 16.4765C9.34641 16.3719 9.18755 16.268 9.08332 16.1556L7.98331 17.1754C8.34335 17.5637 8.7897 17.7724 9.29064 17.9174C9.77368 18.0572 10.3843 18.1577 11.1127 18.2791L11.3593 16.7995ZM7.25 13.7197C7.25 14.4581 7.2488 15.0768 7.3073 15.5762C7.36797 16.0941 7.5004 16.5687 7.82428 16.9876L9.01104 16.0702C8.91726 15.9489 8.84086 15.7752 8.79711 15.4017C8.7512 15.0097 8.75 14.494 8.75 13.7197H7.25ZM9.08332 16.1556C9.05797 16.1282 9.03385 16.0997 9.01104 16.0702L7.82429 16.9876C7.87447 17.0526 7.92752 17.1152 7.9833 17.1754L9.08332 16.1556ZM17.25 11.8094C17.25 13.3663 17.2484 14.4587 17.1394 15.2763C17.0327 16.0762 16.8374 16.4841 16.5469 16.7591L17.5782 17.8484C18.2252 17.2358 18.4986 16.4322 18.6262 15.4746C18.7516 14.5346 18.75 13.3236 18.75 11.8094H17.25ZM11.1127 18.2791C12.6064 18.5281 13.8006 18.7287 14.7484 18.7596C15.714 18.7911 16.5516 18.6536 17.2622 18.1161L16.3573 16.9198C16.0383 17.1611 15.6038 17.2867 14.7973 17.2604C13.9729 17.2335 12.8951 17.0555 11.3593 16.7995L11.1127 18.2791ZM16.5469 16.7591C16.4867 16.8161 16.4234 16.8698 16.3573 16.9198L17.2622 18.1161C17.3724 18.0328 17.4779 17.9434 17.5782 17.8484L16.5469 16.7591ZM11.3593 3.86713C12.8951 3.61117 13.9729 3.43313 14.7973 3.40626C15.6038 3.37997 16.0383 3.50559 16.3573 3.74688L17.2622 2.55055C16.5516 2.0131 15.714 1.87558 14.7484 1.90705C13.8006 1.93795 12.6064 2.13859 11.1127 2.38754L11.3593 3.86713ZM18.75 8.8573C18.75 7.34303 18.7516 6.13202 18.6262 5.1921C18.4986 4.23449 18.2252 3.43084 17.5782 2.8183L16.5469 3.90753C16.8374 4.18254 17.0327 4.59048 17.1394 5.39036C17.2484 6.20794 17.25 7.30034 17.25 8.8573H18.75ZM16.3573 3.74688C16.4234 3.7969 16.4867 3.85053 16.5469 3.90754L17.5782 2.8183C17.4779 2.72329 17.3724 2.63391 17.2622 2.55055L16.3573 3.74688ZM11.1127 2.38754C10.3843 2.50894 9.77368 2.60949 9.29064 2.7493C8.7897 2.8943 8.34335 3.10294 7.98331 3.49131L9.08332 4.5111C9.18755 4.39867 9.34641 4.29473 9.70768 4.19016C10.0868 4.08042 10.5955 3.99444 11.3593 3.86713L11.1127 2.38754ZM8.75 6.94617C8.75 6.17217 8.7512 5.65664 8.79711 5.2648C8.84085 4.89151 8.91723 4.71777 9.01104 4.59642L7.82428 3.67903C7.50043 4.09797 7.36798 4.57241 7.3073 5.09024C7.2488 5.58953 7.25 6.20808 7.25 6.94617H8.75ZM7.98331 3.49131C7.92753 3.55148 7.87446 3.61412 7.82428 3.67903L9.01104 4.59642C9.03385 4.56692 9.05797 4.53845 9.08332 4.5111L7.98331 3.49131Z" />
</svg>
