<svg width="30" height="30" viewBox="0 0 30 30" xmlns="http://www.w3.org/2000/svg">
<path d="M21.6495 5.15682C19.2387 3.19811 15.9884 2.78904 13.1685 4.05912L11.6834 4.72632C10.9514 5.07064 10.1119 5.07064 9.38014 4.72632L5.2258 2.83214C4.06336 2.31545 2.72875 2.40163 1.67414 3.09048C0.791474 3.67149 0.188808 4.59725 0.0380896 5.65186C-0.112629 6.70668 0.188808 7.76129 0.856007 8.57942C1.99701 9.93547 2.87947 11.4637 3.48213 13.1426C3.61141 13.4871 3.97717 13.6593 4.30005 13.5302C4.64458 13.401 4.81674 13.035 4.68767 12.7121C4.02026 10.9041 3.07328 9.24662 1.82464 7.76129C1.3727 7.22316 1.17889 6.53452 1.28651 5.84567C1.39414 5.15682 1.78176 4.55416 2.36278 4.18819C3.05163 3.73624 3.93429 3.67149 4.68767 4.01603L8.842 5.91021C9.91827 6.40525 11.1453 6.40525 12.2215 5.91021L13.7066 5.24301C16.0744 4.16674 18.8082 4.51106 20.8316 6.16855C23.3499 8.21345 24.5985 11.4853 24.0818 14.6925C23.4792 18.3518 20.7669 21.2362 17.1292 22.0327L12.1353 23.1304C11.8986 23.1735 11.6403 23.2166 11.3819 23.2166H10.3271V22.2263L18.5929 20.5043C18.9372 20.4398 19.1741 20.0954 19.0879 19.7509C19.002 19.4066 18.6791 19.1697 18.3346 19.2559L10.3271 20.8917V19.6218L20.1428 17.5769C20.444 17.5124 20.6592 17.2541 20.6592 16.9526V12.3678L21.305 11.0548C21.585 10.5167 21.5419 9.89238 21.2405 9.37569C20.9176 8.85921 20.3795 8.55777 19.7768 8.55777H9.81064C9.18633 8.55777 8.62675 8.88065 8.32531 9.41878C8.02409 9.95691 8.00244 10.6027 8.32531 11.1408L8.75582 11.8942C8.92798 12.1956 9.33704 12.3033 9.63848 12.1311C9.93971 11.9587 10.0473 11.5499 9.87518 11.2484L9.44467 10.495C9.33704 10.3014 9.40158 10.1291 9.44467 10.0645C9.48776 10 9.59539 9.84929 9.81064 9.84929H19.7768C19.992 9.84929 20.0997 10 20.1428 10.0431C20.1859 10.0862 20.2504 10.2584 20.1642 10.452L19.6046 11.5499H18.3777C18.0333 11.5499 17.6888 11.593 17.3659 11.6575L9.53086 13.2933C9.25086 13.3795 9.03561 13.6379 9.03561 13.9391V23.6685L8.32531 24.917C8.02409 25.4551 8.02409 26.1009 8.32531 26.639C8.62675 27.1771 9.18633 27.5 9.81064 27.5H19.7768C20.3795 27.5 20.9176 27.1988 21.2405 26.6821C21.5634 26.1654 21.585 25.5413 21.305 25.0032L20.8962 24.1852C20.7454 23.8624 20.358 23.7331 20.0351 23.9052C19.7123 24.056 19.583 24.4434 19.7554 24.7662L20.1642 25.5844C20.2718 25.778 20.1859 25.9501 20.1428 25.9932C20.0997 26.0363 19.992 26.187 19.7768 26.187H9.81064C9.59539 26.187 9.46611 26.0363 9.44467 25.9718C9.40158 25.9073 9.33704 25.7349 9.44467 25.5413L10.069 24.465H11.3819C11.7263 24.465 12.0708 24.4219 12.4151 24.3574L17.4305 23.2595C21.585 22.3556 24.6845 19.0621 25.3734 14.8646C25.9546 11.227 24.5338 7.50316 21.6495 5.15682ZM10.3271 17.0388L19.3677 15.1446V16.4145L10.3271 18.3087V17.0388ZM17.6457 12.949C17.8826 12.9059 18.141 12.8628 18.3991 12.8628H19.3677V13.8531L10.3271 15.7473V14.4772L17.6457 12.949Z" />
</svg>
