<svg width="24" height="24" viewBox="0 0 24 24" xmlns="http://www.w3.org/2000/svg">
<path d="M4.59202 4.71799L4.25153 4.04973L4.25153 4.04973L4.59202 4.71799ZM3.71799 5.59202L3.04973 5.25153L3.04973 5.25153L3.71799 5.59202ZM3.71799 18.408L4.38624 18.0675L4.38624 18.0675L3.71799 18.408ZM4.59202 19.282L4.93251 18.6138H4.93251L4.59202 19.282ZM19.408 19.282L19.0675 18.6138H19.0675L19.408 19.282ZM20.282 18.408L19.6138 18.0675V18.0675L20.282 18.408ZM20.2692 14.4187L20.2472 13.6691H20.2472L20.2692 14.4187ZM20.0356 14.4256L20.0576 15.1753L20.0356 14.4256ZM20.282 5.59202L19.6138 5.93251V5.93251L20.282 5.59202ZM19.408 4.71799L19.0675 5.38624L19.0675 5.38624L19.408 4.71799ZM6.7 5.25H12.25V3.75H6.7V5.25ZM4.93251 5.38624C5.02307 5.3401 5.16035 5.29822 5.44748 5.27476C5.74336 5.25058 6.12757 5.25 6.7 5.25V3.75C6.15232 3.75 5.69646 3.74942 5.32533 3.77974C4.94545 3.81078 4.58879 3.87789 4.25153 4.04973L4.93251 5.38624ZM4.38624 5.93251C4.50608 5.69731 4.69731 5.50608 4.93251 5.38624L4.25153 4.04973C3.73408 4.31338 3.31338 4.73408 3.04973 5.25153L4.38624 5.93251ZM4.25 7.7C4.25 7.12757 4.25058 6.74336 4.27476 6.44748C4.29822 6.16035 4.3401 6.02307 4.38624 5.93251L3.04973 5.25153C2.87789 5.58879 2.81078 5.94545 2.77974 6.32533C2.74942 6.69646 2.75 7.15232 2.75 7.7H4.25ZM4.25 9.26923V7.7H2.75V9.26923H4.25ZM3.73077 8.75C4.01753 8.75 4.25 8.98247 4.25 9.26923H2.75C2.75 9.8109 3.18911 10.25 3.73077 10.25V8.75ZM4 8.75H3.73077V10.25H4V8.75ZM7.25 12C7.25 10.2051 5.79493 8.75 4 8.75V10.25C4.9665 10.25 5.75 11.0335 5.75 12H7.25ZM4 15.25C5.79493 15.25 7.25 13.7949 7.25 12H5.75C5.75 12.9665 4.9665 13.75 4 13.75V15.25ZM3.73077 15.25H4V13.75H3.73077V15.25ZM4.25 14.7308C4.25 15.0175 4.01753 15.25 3.73077 15.25V13.75C3.18911 13.75 2.75 14.1891 2.75 14.7308H4.25ZM4.25 16.3V14.7308H2.75V16.3H4.25ZM4.38624 18.0675C4.3401 17.9769 4.29822 17.8396 4.27476 17.5525C4.25058 17.2566 4.25 16.8724 4.25 16.3H2.75C2.75 16.8477 2.74942 17.3035 2.77974 17.6747C2.81078 18.0546 2.87789 18.4112 3.04973 18.7485L4.38624 18.0675ZM4.93251 18.6138C4.69731 18.4939 4.50608 18.3027 4.38624 18.0675L3.04973 18.7485C3.31338 19.2659 3.73408 19.6866 4.25153 19.9503L4.93251 18.6138ZM6.7 18.75C6.12757 18.75 5.74336 18.7494 5.44748 18.7252C5.16035 18.7018 5.02307 18.6599 4.93251 18.6138L4.25153 19.9503C4.58879 20.1221 4.94545 20.1892 5.32533 20.2203C5.69646 20.2506 6.15232 20.25 6.7 20.25V18.75ZM12.25 18.75H6.7V20.25H12.25V18.75ZM13.25 19.25V19H11.75V19.25H13.25ZM13.25 19C13.25 18.8619 13.3619 18.75 13.5 18.75V17.25C12.5335 17.25 11.75 18.0335 11.75 19H13.25ZM13.5 18.75C13.6381 18.75 13.75 18.8619 13.75 19H15.25C15.25 18.0335 14.4665 17.25 13.5 17.25V18.75ZM13.75 19V19.25H15.25V19H13.75ZM17.3 18.75H14.75V20.25H17.3V18.75ZM19.0675 18.6138C18.9769 18.6599 18.8396 18.7018 18.5525 18.7252C18.2566 18.7494 17.8724 18.75 17.3 18.75V20.25C17.8477 20.25 18.3035 20.2506 18.6747 20.2203C19.0546 20.1892 19.4112 20.1221 19.7485 19.9503L19.0675 18.6138ZM19.6138 18.0675C19.4939 18.3027 19.3027 18.4939 19.0675 18.6138L19.7485 19.9503C20.2659 19.6866 20.6866 19.2659 20.9503 18.7485L19.6138 18.0675ZM19.75 16.3C19.75 16.8724 19.7494 17.2566 19.7252 17.5525C19.7018 17.8396 19.6599 17.9769 19.6138 18.0675L20.9503 18.7485C21.1221 18.4112 21.1892 18.0546 21.2203 17.6747C21.2506 17.3035 21.25 16.8477 21.25 16.3H19.75ZM19.75 14.6428V16.3H21.25V14.6428H19.75ZM20.2912 15.1684C19.9949 15.1771 19.75 14.9393 19.75 14.6428H21.25C21.25 14.0936 20.7962 13.653 20.2472 13.6691L20.2912 15.1684ZM20.0576 15.1753L20.2912 15.1684L20.2472 13.6691L20.0136 13.6759L20.0576 15.1753ZM16.75 11.9633C16.75 13.7749 18.2468 15.2284 20.0576 15.1753L20.0136 13.6759C19.0481 13.7043 18.25 12.9293 18.25 11.9633H16.75ZM19.9633 8.75C18.1887 8.75 16.75 10.1887 16.75 11.9633H18.25C18.25 11.0171 19.0171 10.25 19.9633 10.25V8.75ZM20.2692 8.75H19.9633V10.25H20.2692V8.75ZM19.75 9.26923C19.75 8.98246 19.9825 8.75 20.2692 8.75V10.25C20.8109 10.25 21.25 9.8109 21.25 9.26923H19.75ZM19.75 7.7V9.26923H21.25V7.7H19.75ZM19.6138 5.93251C19.6599 6.02307 19.7018 6.16035 19.7252 6.44748C19.7494 6.74336 19.75 7.12757 19.75 7.7H21.25C21.25 7.15232 21.2506 6.69646 21.2203 6.32533C21.1892 5.94545 21.1221 5.58879 20.9503 5.25153L19.6138 5.93251ZM19.0675 5.38624C19.3027 5.50608 19.4939 5.69731 19.6138 5.93251L20.9503 5.25153C20.6866 4.73408 20.2659 4.31338 19.7485 4.04973L19.0675 5.38624ZM17.3 5.25C17.8724 5.25 18.2566 5.25058 18.5525 5.27476C18.8396 5.29822 18.9769 5.3401 19.0675 5.38624L19.7485 4.04973C19.4112 3.87789 19.0546 3.81078 18.6747 3.77974C18.3035 3.74942 17.8477 3.75 17.3 3.75V5.25ZM14.75 5.25H17.3V3.75H14.75V5.25ZM13.75 4.75V5H15.25V4.75H13.75ZM13.75 5C13.75 5.13807 13.6381 5.25 13.5 5.25V6.75C14.4665 6.75 15.25 5.9665 15.25 5H13.75ZM13.5 5.25C13.3619 5.25 13.25 5.13807 13.25 5H11.75C11.75 5.9665 12.5335 6.75 13.5 6.75V5.25ZM13.25 5V4.75H11.75V5H13.25ZM13.5 8.75C13.6381 8.75 13.75 8.86193 13.75 9H15.25C15.25 8.0335 14.4665 7.25 13.5 7.25V8.75ZM13.25 9C13.25 8.86193 13.3619 8.75 13.5 8.75V7.25C12.5335 7.25 11.75 8.0335 11.75 9H13.25ZM13.25 10V9H11.75V10H13.25ZM13.5 10.25C13.3619 10.25 13.25 10.1381 13.25 10H11.75C11.75 10.9665 12.5335 11.75 13.5 11.75V10.25ZM13.75 10C13.75 10.1381 13.6381 10.25 13.5 10.25V11.75C14.4665 11.75 15.25 10.9665 15.25 10H13.75ZM13.75 9V10H15.25V9H13.75ZM13.5 13.75C13.6381 13.75 13.75 13.8619 13.75 14H15.25C15.25 13.0335 14.4665 12.25 13.5 12.25V13.75ZM13.25 14C13.25 13.8619 13.3619 13.75 13.5 13.75V12.25C12.5335 12.25 11.75 13.0335 11.75 14H13.25ZM13.25 15V14H11.75V15H13.25ZM13.5 15.25C13.3619 15.25 13.25 15.1381 13.25 15H11.75C11.75 15.9665 12.5335 16.75 13.5 16.75V15.25ZM13.75 15C13.75 15.1381 13.6381 15.25 13.5 15.25V16.75C14.4665 16.75 15.25 15.9665 15.25 15H13.75ZM13.75 14V15H15.25V14H13.75ZM13.75 19.25C13.75 19.8023 14.1977 20.25 14.75 20.25V18.75C15.0261 18.75 15.25 18.9739 15.25 19.25H13.75ZM14.75 3.75C14.1977 3.75 13.75 4.19772 13.75 4.75H15.25C15.25 5.02614 15.0261 5.25 14.75 5.25V3.75ZM12.25 20.25C12.8023 20.25 13.25 19.8023 13.25 19.25H11.75C11.75 18.9739 11.9739 18.75 12.25 18.75V20.25ZM12.25 5.25C11.9739 5.25 11.75 5.02614 11.75 4.75H13.25C13.25 4.19772 12.8023 3.75 12.25 3.75V5.25Z"/>
</svg>
