<svg width="24" height="24" viewBox="0 0 24 24" xmlns="http://www.w3.org/2000/svg">
<path fill-rule="evenodd" clip-rule="evenodd" d="M11.7852 17.1893H12.9807C12.9807 17.1893 13.3418 17.1503 13.5262 16.9545C13.6959 16.7749 13.6904 16.4374 13.6904 16.4374C13.6904 16.4374 13.6671 14.8577 14.4116 14.6251C15.1455 14.3959 16.0879 16.1518 17.0868 16.827C17.8421 17.338 18.4161 17.2259 18.4161 17.2259L21.087 17.1893C21.087 17.1893 22.4842 17.1046 21.8217 16.0227C21.7674 15.9342 21.4359 15.2224 19.8359 13.7598C18.1612 12.229 18.3854 12.4766 20.4028 9.82863C21.6314 8.216 22.1226 7.23147 21.9692 6.8098C21.8228 6.40818 20.9192 6.51434 20.9192 6.51434L17.9119 6.53279C17.9119 6.53279 17.689 6.50284 17.5237 6.60017C17.3621 6.69563 17.2581 6.91809 17.2581 6.91809C17.2581 6.91809 16.7822 8.166 16.1474 9.22727C14.8082 11.4667 14.2728 11.5848 14.054 11.4458C13.5449 11.1217 13.672 10.1439 13.672 9.4492C13.672 7.27907 14.0062 6.37422 13.0211 6.13999C12.6942 6.06218 12.4537 6.01084 11.6177 6.00255C10.5447 5.99159 9.63645 6.00576 9.12221 6.2539C8.7801 6.41888 8.51619 6.78654 8.67692 6.80766C8.87567 6.83387 9.32584 6.92719 9.5645 7.24725C9.87267 7.6601 9.86181 8.58741 9.86181 8.58741C9.86181 8.58741 10.0388 11.142 9.44829 11.4594C9.04292 11.6771 8.48686 11.2327 7.29302 9.20106C6.6813 8.16038 6.21945 7.01008 6.21945 7.01008C6.21945 7.01008 6.1304 6.79509 5.97156 6.68012C5.77879 6.54081 5.50944 6.49642 5.50944 6.49642L2.65176 6.51487C2.65176 6.51487 2.22277 6.52664 2.06529 6.71033C1.92519 6.87371 2.05416 7.21169 2.05416 7.21169C2.05416 7.21169 4.29143 12.3664 6.82466 14.9641C9.14746 17.3457 11.7852 17.1893 11.7852 17.1893Z"/>
</svg>
